<svg width="28" height="28" viewBox="0 0 28 28" fill="none" xmlns="http://www.w3.org/2000/svg">
<path d="M21.8407 10.1136C21.8408 9.07264 21.6337 8.04201 21.2313 7.08194C20.8289 6.12189 20.2394 5.25162 19.4971 4.52181C18.7547 3.79202 17.8745 3.21736 16.9078 2.83136C15.9411 2.44535 14.9071 2.25577 13.8663 2.27361C11.8682 2.33303 9.96575 3.14276 8.5378 4.54164C7.10985 5.94053 6.26115 7.82595 6.16067 9.8224C6.11292 11.1546 6.40564 12.477 7.0112 13.6647C7.61676 14.8522 8.51516 15.8658 9.62146 16.6096C9.93326 16.8123 10.1897 17.0894 10.3676 17.4159C10.5455 17.7425 10.6394 18.1082 10.6407 18.48V20.1936H17.3607V18.48C17.3607 18.1092 17.4529 17.7442 17.6288 17.4177C17.8048 17.0912 18.059 16.8135 18.3687 16.6096C19.4351 15.894 20.3096 14.9274 20.915 13.7947C21.5205 12.662 21.8383 11.3979 21.8407 10.1136Z" stroke="white" stroke-width="2" stroke-linecap="round" stroke-linejoin="round"/>
<path d="M17.36 23.5648C16.3907 24.2918 15.2117 24.6848 14 24.6848C12.7883 24.6848 11.6094 24.2918 10.64 23.5648" stroke="white" stroke-width="2" stroke-linecap="round" stroke-linejoin="round"/>
</svg>
