<svg width="60" height="60" viewBox="0 0 60 60" fill="none" xmlns="http://www.w3.org/2000/svg">
<path fill-rule="evenodd" clip-rule="evenodd" d="M2.5 30C2.5 14.8122 14.8122 2.5 30 2.5C45.1877 2.5 57.5 14.8122 57.5 30C57.5 45.1877 45.1877 57.5 30 57.5C14.8122 57.5 2.5 45.1877 2.5 30ZM46.0395 24.2601C47.0138 23.2817 47.0103 21.6988 46.0318 20.7246L44.2602 18.9606C43.2817 17.9864 41.699 17.9898 40.7247 18.9683L26.2958 33.4595L17.9931 25.2723C17.0099 24.3029 15.4271 24.314 14.4576 25.2973L12.7023 27.0773C11.7329 28.0603 11.7439 29.6433 12.7271 30.6128L24.5728 42.2935C25.5525 43.2598 27.1287 43.2525 28.0997 42.2775L46.0395 24.2601Z" fill="#2A8BDF"/>
</svg>
