<svg width="26" height="26" viewBox="0 0 26 26" fill="none" xmlns="http://www.w3.org/2000/svg">
<path d="M23.8334 8.66666H21.6667M21.6667 8.66666H20.5834C18.4167 6.50192 15.1667 4.3331 13 6.5M21.6667 8.66666V17.3333M13 6.5L9.74954 9.75176C9.66357 9.83777 9.62058 9.88076 9.58599 9.91883C8.83459 10.7455 8.83491 12.0079 9.58673 12.8343C9.62133 12.8723 9.66441 12.9153 9.75036 13.0012C9.83633 13.0871 9.87933 13.1302 9.91738 13.1647C10.7439 13.9158 12.006 13.9157 12.8322 13.1643C12.8702 13.1297 12.9132 13.0867 12.9992 13.0008L14.0829 11.917M13 6.5C10.8334 4.3331 7.58335 6.502 5.41669 8.66673H4.33335M21.6667 17.3333V20.5833H23.8334M21.6667 17.3333H18.6026M4.33335 8.66673H2.16669M4.33335 8.66673V17.3333M4.33335 17.3333H6.50002L6.91382 18.1609C7.47029 19.2739 9.00344 19.4121 9.75002 18.4166C10.3407 19.0074 10.6361 19.3027 10.9547 19.4606C11.5608 19.7609 12.2726 19.7609 12.8787 19.4606C13.1973 19.3027 13.4927 19.0074 14.0834 18.4166L14.625 18.9583C14.7113 19.0445 14.7545 19.0877 14.7926 19.1225C15.6191 19.8737 16.881 19.8737 17.7074 19.1225C17.7456 19.0877 17.7888 19.0445 17.875 18.9583C17.9613 18.872 18.0045 18.8289 18.0391 18.7907C18.7903 17.9643 18.7903 16.7023 18.0391 15.876C18.0045 15.8377 17.9613 15.7946 17.875 15.7083L16.25 14.0833M4.33335 17.3333V20.5833H2.16669" stroke="white" stroke-width="2" stroke-linecap="round" stroke-linejoin="round"/>
</svg>
