<svg width="256" height="256" viewBox="0 0 256 256" fill="none" xmlns="http://www.w3.org/2000/svg">
<path d="M116 114.5V201.5H37.8828L59.1309 114.5H116Z" stroke="#5954E3" stroke-width="43"/>
<path d="M241.5 27H60.0794C58.2172 27 56.6013 28.2851 56.1821 30.0995L45.6324 75.7558C45.0531 78.2625 46.9569 80.6563 49.5297 80.6563H145.056C147.265 80.6563 149.056 82.4472 149.056 84.6563V219C149.056 221.209 150.847 223 153.056 223H201.652C203.861 223 205.652 221.209 205.652 219V84.6563C205.652 82.4472 207.443 80.6563 209.652 80.6563H241.5C243.709 80.6563 245.5 78.8654 245.5 76.6563V31C245.5 28.7909 243.709 27 241.5 27Z" fill="url(#paint0_linear_34_2)"/>
<defs>
<linearGradient id="paint0_linear_34_2" x1="49.3532" y1="42.6195" x2="298.429" y2="100.077" gradientUnits="userSpaceOnUse">
<stop stop-color="#D2B2FF"/>
<stop offset="0.326923" stop-color="#A36CF0"/>
</linearGradient>
</defs>
</svg>
