<svg width="200" height="200" viewBox="0 0 200 200" fill="none" xmlns="http://www.w3.org/2000/svg">
<path d="M23.1717 144.623L24.2262 144.563L24.2262 144.563L23.1717 144.623ZM83.154 181.523L82.5936 182.352V182.352L83.154 181.523ZM29.5945 154.612L29.0341 155.441L29.0341 155.441L29.5945 154.612ZM176.172 62.3984L177.226 62.3382L177.226 62.3382L176.172 62.3984ZM174.109 68.9651L175.005 69.41L175.005 69.41L174.109 68.9651ZM102.085 176.535L102.981 176.98V176.98L102.085 176.535ZM23.1717 144.623L24.2262 144.563L24.2261 137.325L23.1716 137.385L22.1171 137.445L22.1172 144.683L23.1717 144.623ZM83.154 181.523L83.7144 180.695L30.1549 153.784L29.5945 154.612L29.0341 155.441L82.5936 182.352L83.154 181.523ZM176.172 52.3851L175.117 52.4453L175.117 62.4586L176.172 62.3984L177.226 62.3382L177.226 52.3249L176.172 52.3851ZM174.109 68.9651L173.214 68.5202L101.19 176.09L102.085 176.535L102.981 176.98L175.005 69.41L174.109 68.9651ZM176.172 62.3984L175.117 62.4586C175.117 64.5624 174.458 66.6619 173.214 68.5202L174.109 68.9651L175.005 69.41C176.457 67.242 177.226 64.7925 177.226 62.3382L176.172 62.3984ZM83.154 181.523L82.5936 182.352C89.523 185.833 98.6664 183.424 102.981 176.98L102.085 176.535L101.19 176.09C97.4911 181.614 89.6539 183.679 83.7144 180.695L83.154 181.523ZM23.1717 144.623L22.1172 144.683C22.1172 149.214 24.7301 153.278 29.0341 155.441L29.5945 154.612L30.1549 153.784C26.4658 151.93 24.2262 148.447 24.2262 144.563L23.1717 144.623Z" fill="black"/>
<rect x="0.336834" y="1.27639" width="84.0702" height="157.004" rx="12" transform="matrix(0.894778 0.446512 -0.557944 0.829879 106.27 12.0667)" stroke="black" stroke-width="2"/>
<rect width="26.1112" height="6.28828" rx="3.14414" transform="matrix(0.894778 0.446512 -0.557944 0.829879 129.34 29.8592)" fill="black"/>
<rect width="46.4199" height="1.79665" rx="0.898326" transform="matrix(0.894778 0.446512 -0.557944 0.829879 37.6221 147.371)" fill="black"/>
<path d="M159.116 83.5471L159.116 90.2206L149.593 104.385L149.593 97.7117L159.116 83.5471Z" fill="black"/>
<g clip-path="url(#clip0_85_17)">
<path d="M78.118 106.847C77.8099 107.305 77.9607 107.877 78.4549 108.123C78.949 108.37 79.5994 108.198 79.9076 107.74L79.0128 107.294L78.118 106.847ZM93.691 87.2388C93.9992 86.7805 93.8484 86.209 93.3542 85.9624C92.86 85.7158 92.2096 85.8875 91.9015 86.3458L92.7963 86.7923L93.691 87.2388ZM111.17 117.009L111.962 117.585L111.962 117.585L111.17 117.009ZM122.271 105.125L121.479 104.549L121.479 104.549L122.271 105.125ZM111.646 75.0122L112.212 75.7732L112.212 75.7732L111.646 75.0122ZM94.1114 85.9703L93.5451 85.2094L93.545 85.2094L94.1114 85.9703ZM79.0128 107.294L79.9076 107.74L93.691 87.2388L92.7963 86.7923L91.9015 86.3458L78.118 106.847L79.0128 107.294ZM79.4736 85.1221L78.5789 84.6756L69.8076 97.7219L70.7024 98.1684L71.5971 98.6149L80.3684 85.5687L79.4736 85.1221ZM70.7024 98.1684L69.8076 97.7219C68.0773 100.296 69.1446 103.477 71.9649 104.885L72.5229 104.055L73.0808 103.225C71.1222 102.248 70.5592 100.159 71.5971 98.6149L70.7024 98.1684ZM72.5229 104.055L71.9649 104.885L101.01 119.379L101.568 118.549L102.126 117.719L73.0808 103.225L72.5229 104.055ZM101.568 118.549L101.01 119.379C104.603 121.172 109.263 120.473 111.962 117.585L111.17 117.009L110.378 116.433C108.435 118.514 104.94 119.123 102.126 117.719L101.568 118.549ZM111.17 117.009L111.962 117.585L123.063 105.701L122.271 105.125L121.479 104.549L110.378 116.433L111.17 117.009ZM122.271 105.125L123.063 105.701C126.434 102.092 125.196 96.8739 120.745 94.653L120.187 95.4829L119.629 96.3127C123.134 98.0615 123.871 101.988 121.479 104.549L122.271 105.125ZM120.187 95.4829L120.745 94.653L113.167 90.8712L112.609 91.701L112.051 92.5309L119.629 96.3127L120.187 95.4829ZM112.609 91.701L113.167 90.8712C112.403 90.49 112.247 89.7187 112.593 89.2043L111.699 88.7578L110.804 88.3112C109.766 89.8555 110.425 91.7197 112.051 92.5309L112.609 91.701ZM111.699 88.7578L112.593 89.2043L117.022 82.6175L116.127 82.171L115.232 81.7244L110.804 88.3112L111.699 88.7578ZM116.127 82.171L117.022 82.6175C119.074 79.5644 117.817 75.7686 114.44 74.0834L113.882 74.9133L113.325 75.7432C115.84 76.9983 116.592 79.7012 115.232 81.7244L116.127 82.171ZM113.882 74.9133L114.44 74.0834C113.42 73.5745 112.106 73.6099 111.08 74.2513L111.646 75.0122L112.212 75.7732C112.501 75.5929 112.939 75.5507 113.325 75.7432L113.882 74.9133ZM111.646 75.0122L111.08 74.2513L93.5451 85.2094L94.1114 85.9703L94.6777 86.7313L112.212 75.7732L111.646 75.0122ZM94.1114 85.9703L93.545 85.2094C93.1142 85.4787 92.4862 85.5293 91.9483 85.2609L91.3904 86.0907L90.8324 86.9206C92.0044 87.5055 93.509 87.4618 94.6778 86.7313L94.1114 85.9703ZM91.3904 86.0907L91.9483 85.2609L86.8643 82.7238L86.3063 83.5537L85.7484 84.3836L90.8324 86.9206L91.3904 86.0907ZM86.3063 83.5537L86.8643 82.7238C84.0439 81.3164 80.3092 82.102 78.5789 84.6756L79.4736 85.1221L80.3684 85.5687C81.4063 84.0249 83.7897 83.4062 85.7484 84.3836L86.3063 83.5537Z" fill="black"/>
</g>
<defs>
<clipPath id="clip0_85_17">
<rect width="58.0248" height="53.8996" fill="white" transform="matrix(0.894778 0.446512 -0.557944 0.829879 91.4365 58.7343)"/>
</clipPath>
</defs>
</svg>
